<svg width="24" height="24" viewBox="0 0 24 24" fill="none" xmlns="http://www.w3.org/2000/svg"><path d="M4.5 11.7736C4.5 10.3176 4.5 9.58953 4.79433 8.94958C5.08867 8.30964 5.64143 7.83584 6.74695 6.88825L7.81935 5.96905C9.81758 4.25628 10.8167 3.3999 12.0068 3.3999C13.1969 3.3999 14.196 4.25628 16.1943 5.96905L17.2667 6.88825C18.3722 7.83584 18.925 8.30964 19.2193 8.94958C19.5136 9.58953 19.5136 10.3176 19.5136 11.7736V16.321C19.5136 18.3432 19.5136 19.3542 18.8854 19.9824C18.2572 20.6106 17.2462 20.6106 15.224 20.6106H8.78961C6.76747 20.6106 5.7564 20.6106 5.1282 19.9824C4.5 19.3542 4.5 18.3432 4.5 16.321V11.7736Z" fill="#EE204E" stroke="#EE204E" stroke-width="1.35874"></path><path d="M14.724 18.7992V15.1759C14.724 14.1754 13.9129 13.3643 12.9124 13.3643H11.1007C10.1002 13.3643 9.28906 14.1754 9.28906 15.1759V18.7992" stroke="white" stroke-width="1.35874" stroke-linecap="square" stroke-linejoin="round"></path></svg>